<?xml version="1.0" encoding="utf-8" standalone="no"?>
<!DOCTYPE svg PUBLIC "-//W3C//DTD SVG 1.1//EN"
  "http://www.w3.org/Graphics/SVG/1.1/DTD/svg11.dtd">
<!-- Created with matplotlib (https://matplotlib.org/) -->
<svg height="331.833437pt" version="1.1" viewBox="0 0 439.77082 331.833437" width="439.77082pt" xmlns="http://www.w3.org/2000/svg" xmlns:xlink="http://www.w3.org/1999/xlink">
 <defs>
  <style type="text/css">
*{stroke-linecap:butt;stroke-linejoin:round;}
  </style>
 </defs>
 <g id="figure_1">
  <g id="patch_1">
   <path d="M 0 331.833437 
L 439.77082 331.833437 
L 439.77082 0 
L 0 0 
z
" style="fill:#ffffff;"/>
  </g>
  <g id="axes_1">
   <g id="patch_2">
    <path d="M 90.26125 251.322187 
L 425.06125 251.322187 
L 425.06125 33.882187 
L 90.26125 33.882187 
z
" style="fill:#ffffff;"/>
   </g>
   <g id="matplotlib.axis_1">
    <g id="xtick_1">
     <g id="line2d_1">
      <path clip-path="url(#pe7e4ea475a)" d="M 179.789859 251.322187 
L 179.789859 33.882187 
" style="fill:none;stroke:#666666;stroke-dasharray:0.8,1.32;stroke-dashoffset:0;stroke-width:0.8;"/>
     </g>
     <g id="line2d_2">
      <defs>
       <path d="M 0 0 
L 0 -3.5 
" id="m2e6bc274b5" style="stroke:#000000;stroke-width:0.8;"/>
      </defs>
      <g>
       <use style="stroke:#000000;stroke-width:0.8;" x="179.789859" xlink:href="#m2e6bc274b5" y="251.322187"/>
      </g>
     </g>
     <g id="text_1">
      <!-- 2 -->
      <defs>
       <path d="M 19.1875 8.296875 
L 53.609375 8.296875 
L 53.609375 0 
L 7.328125 0 
L 7.328125 8.296875 
Q 12.9375 14.109375 22.625 23.890625 
Q 32.328125 33.6875 34.8125 36.53125 
Q 39.546875 41.84375 41.421875 45.53125 
Q 43.3125 49.21875 43.3125 52.78125 
Q 43.3125 58.59375 39.234375 62.25 
Q 35.15625 65.921875 28.609375 65.921875 
Q 23.96875 65.921875 18.8125 64.3125 
Q 13.671875 62.703125 7.8125 59.421875 
L 7.8125 69.390625 
Q 13.765625 71.78125 18.9375 73 
Q 24.125 74.21875 28.421875 74.21875 
Q 39.75 74.21875 46.484375 68.546875 
Q 53.21875 62.890625 53.21875 53.421875 
Q 53.21875 48.921875 51.53125 44.890625 
Q 49.859375 40.875 45.40625 35.40625 
Q 44.1875 33.984375 37.640625 27.21875 
Q 31.109375 20.453125 19.1875 8.296875 
z
" id="DejaVuSans-50"/>
      </defs>
      <g transform="translate(169.609859 279.137187)scale(0.32 -0.32)">
       <use xlink:href="#DejaVuSans-50"/>
      </g>
     </g>
    </g>
    <g id="xtick_2">
     <g id="line2d_3">
      <path clip-path="url(#pe7e4ea475a)" d="M 301.09034 251.322187 
L 301.09034 33.882187 
" style="fill:none;stroke:#666666;stroke-dasharray:0.8,1.32;stroke-dashoffset:0;stroke-width:0.8;"/>
     </g>
     <g id="line2d_4">
      <g>
       <use style="stroke:#000000;stroke-width:0.8;" x="301.09034" xlink:href="#m2e6bc274b5" y="251.322187"/>
      </g>
     </g>
     <g id="text_2">
      <!-- 4 -->
      <defs>
       <path d="M 37.796875 64.3125 
L 12.890625 25.390625 
L 37.796875 25.390625 
z
M 35.203125 72.90625 
L 47.609375 72.90625 
L 47.609375 25.390625 
L 58.015625 25.390625 
L 58.015625 17.1875 
L 47.609375 17.1875 
L 47.609375 0 
L 37.796875 0 
L 37.796875 17.1875 
L 4.890625 17.1875 
L 4.890625 26.703125 
z
" id="DejaVuSans-52"/>
      </defs>
      <g transform="translate(290.91034 279.137187)scale(0.32 -0.32)">
       <use xlink:href="#DejaVuSans-52"/>
      </g>
     </g>
    </g>
    <g id="xtick_3">
     <g id="line2d_5">
      <path clip-path="url(#pe7e4ea475a)" d="M 422.39082 251.322187 
L 422.39082 33.882187 
" style="fill:none;stroke:#666666;stroke-dasharray:0.8,1.32;stroke-dashoffset:0;stroke-width:0.8;"/>
     </g>
     <g id="line2d_6">
      <g>
       <use style="stroke:#000000;stroke-width:0.8;" x="422.39082" xlink:href="#m2e6bc274b5" y="251.322187"/>
      </g>
     </g>
     <g id="text_3">
      <!-- 6 -->
      <defs>
       <path d="M 33.015625 40.375 
Q 26.375 40.375 22.484375 35.828125 
Q 18.609375 31.296875 18.609375 23.390625 
Q 18.609375 15.53125 22.484375 10.953125 
Q 26.375 6.390625 33.015625 6.390625 
Q 39.65625 6.390625 43.53125 10.953125 
Q 47.40625 15.53125 47.40625 23.390625 
Q 47.40625 31.296875 43.53125 35.828125 
Q 39.65625 40.375 33.015625 40.375 
z
M 52.59375 71.296875 
L 52.59375 62.3125 
Q 48.875 64.0625 45.09375 64.984375 
Q 41.3125 65.921875 37.59375 65.921875 
Q 27.828125 65.921875 22.671875 59.328125 
Q 17.53125 52.734375 16.796875 39.40625 
Q 19.671875 43.65625 24.015625 45.921875 
Q 28.375 48.1875 33.59375 48.1875 
Q 44.578125 48.1875 50.953125 41.515625 
Q 57.328125 34.859375 57.328125 23.390625 
Q 57.328125 12.15625 50.6875 5.359375 
Q 44.046875 -1.421875 33.015625 -1.421875 
Q 20.359375 -1.421875 13.671875 8.265625 
Q 6.984375 17.96875 6.984375 36.375 
Q 6.984375 53.65625 15.1875 63.9375 
Q 23.390625 74.21875 37.203125 74.21875 
Q 40.921875 74.21875 44.703125 73.484375 
Q 48.484375 72.75 52.59375 71.296875 
z
" id="DejaVuSans-54"/>
      </defs>
      <g transform="translate(412.21082 279.137187)scale(0.32 -0.32)">
       <use xlink:href="#DejaVuSans-54"/>
      </g>
     </g>
    </g>
    <g id="text_4">
     <!-- Time (sec) -->
     <defs>
      <path d="M -0.296875 72.90625 
L 61.375 72.90625 
L 61.375 64.59375 
L 35.5 64.59375 
L 35.5 0 
L 25.59375 0 
L 25.59375 64.59375 
L -0.296875 64.59375 
z
" id="DejaVuSans-84"/>
      <path d="M 9.421875 54.6875 
L 18.40625 54.6875 
L 18.40625 0 
L 9.421875 0 
z
M 9.421875 75.984375 
L 18.40625 75.984375 
L 18.40625 64.59375 
L 9.421875 64.59375 
z
" id="DejaVuSans-105"/>
      <path d="M 52 44.1875 
Q 55.375 50.25 60.0625 53.125 
Q 64.75 56 71.09375 56 
Q 79.640625 56 84.28125 50.015625 
Q 88.921875 44.046875 88.921875 33.015625 
L 88.921875 0 
L 79.890625 0 
L 79.890625 32.71875 
Q 79.890625 40.578125 77.09375 44.375 
Q 74.3125 48.1875 68.609375 48.1875 
Q 61.625 48.1875 57.5625 43.546875 
Q 53.515625 38.921875 53.515625 30.90625 
L 53.515625 0 
L 44.484375 0 
L 44.484375 32.71875 
Q 44.484375 40.625 41.703125 44.40625 
Q 38.921875 48.1875 33.109375 48.1875 
Q 26.21875 48.1875 22.15625 43.53125 
Q 18.109375 38.875 18.109375 30.90625 
L 18.109375 0 
L 9.078125 0 
L 9.078125 54.6875 
L 18.109375 54.6875 
L 18.109375 46.1875 
Q 21.1875 51.21875 25.484375 53.609375 
Q 29.78125 56 35.6875 56 
Q 41.65625 56 45.828125 52.96875 
Q 50 49.953125 52 44.1875 
z
" id="DejaVuSans-109"/>
      <path d="M 56.203125 29.59375 
L 56.203125 25.203125 
L 14.890625 25.203125 
Q 15.484375 15.921875 20.484375 11.0625 
Q 25.484375 6.203125 34.421875 6.203125 
Q 39.59375 6.203125 44.453125 7.46875 
Q 49.3125 8.734375 54.109375 11.28125 
L 54.109375 2.78125 
Q 49.265625 0.734375 44.1875 -0.34375 
Q 39.109375 -1.421875 33.890625 -1.421875 
Q 20.796875 -1.421875 13.15625 6.1875 
Q 5.515625 13.8125 5.515625 26.8125 
Q 5.515625 40.234375 12.765625 48.109375 
Q 20.015625 56 32.328125 56 
Q 43.359375 56 49.78125 48.890625 
Q 56.203125 41.796875 56.203125 29.59375 
z
M 47.21875 32.234375 
Q 47.125 39.59375 43.09375 43.984375 
Q 39.0625 48.390625 32.421875 48.390625 
Q 24.90625 48.390625 20.390625 44.140625 
Q 15.875 39.890625 15.1875 32.171875 
z
" id="DejaVuSans-101"/>
      <path id="DejaVuSans-32"/>
      <path d="M 31 75.875 
Q 24.46875 64.65625 21.28125 53.65625 
Q 18.109375 42.671875 18.109375 31.390625 
Q 18.109375 20.125 21.3125 9.0625 
Q 24.515625 -2 31 -13.1875 
L 23.1875 -13.1875 
Q 15.875 -1.703125 12.234375 9.375 
Q 8.59375 20.453125 8.59375 31.390625 
Q 8.59375 42.28125 12.203125 53.3125 
Q 15.828125 64.359375 23.1875 75.875 
z
" id="DejaVuSans-40"/>
      <path d="M 44.28125 53.078125 
L 44.28125 44.578125 
Q 40.484375 46.53125 36.375 47.5 
Q 32.28125 48.484375 27.875 48.484375 
Q 21.1875 48.484375 17.84375 46.4375 
Q 14.5 44.390625 14.5 40.28125 
Q 14.5 37.15625 16.890625 35.375 
Q 19.28125 33.59375 26.515625 31.984375 
L 29.59375 31.296875 
Q 39.15625 29.25 43.1875 25.515625 
Q 47.21875 21.78125 47.21875 15.09375 
Q 47.21875 7.46875 41.1875 3.015625 
Q 35.15625 -1.421875 24.609375 -1.421875 
Q 20.21875 -1.421875 15.453125 -0.5625 
Q 10.6875 0.296875 5.421875 2 
L 5.421875 11.28125 
Q 10.40625 8.6875 15.234375 7.390625 
Q 20.0625 6.109375 24.8125 6.109375 
Q 31.15625 6.109375 34.5625 8.28125 
Q 37.984375 10.453125 37.984375 14.40625 
Q 37.984375 18.0625 35.515625 20.015625 
Q 33.0625 21.96875 24.703125 23.78125 
L 21.578125 24.515625 
Q 13.234375 26.265625 9.515625 29.90625 
Q 5.8125 33.546875 5.8125 39.890625 
Q 5.8125 47.609375 11.28125 51.796875 
Q 16.75 56 26.8125 56 
Q 31.78125 56 36.171875 55.265625 
Q 40.578125 54.546875 44.28125 53.078125 
z
" id="DejaVuSans-115"/>
      <path d="M 48.78125 52.59375 
L 48.78125 44.1875 
Q 44.96875 46.296875 41.140625 47.34375 
Q 37.3125 48.390625 33.40625 48.390625 
Q 24.65625 48.390625 19.8125 42.84375 
Q 14.984375 37.3125 14.984375 27.296875 
Q 14.984375 17.28125 19.8125 11.734375 
Q 24.65625 6.203125 33.40625 6.203125 
Q 37.3125 6.203125 41.140625 7.25 
Q 44.96875 8.296875 48.78125 10.40625 
L 48.78125 2.09375 
Q 45.015625 0.34375 40.984375 -0.53125 
Q 36.96875 -1.421875 32.421875 -1.421875 
Q 20.0625 -1.421875 12.78125 6.34375 
Q 5.515625 14.109375 5.515625 27.296875 
Q 5.515625 40.671875 12.859375 48.328125 
Q 20.21875 56 33.015625 56 
Q 37.15625 56 41.109375 55.140625 
Q 45.0625 54.296875 48.78125 52.59375 
z
" id="DejaVuSans-99"/>
      <path d="M 8.015625 75.875 
L 15.828125 75.875 
Q 23.140625 64.359375 26.78125 53.3125 
Q 30.421875 42.28125 30.421875 31.390625 
Q 30.421875 20.453125 26.78125 9.375 
Q 23.140625 -1.703125 15.828125 -13.1875 
L 8.015625 -13.1875 
Q 14.5 -2 17.703125 9.0625 
Q 20.90625 20.125 20.90625 31.390625 
Q 20.90625 42.671875 17.703125 53.65625 
Q 14.5 64.65625 8.015625 75.875 
z
" id="DejaVuSans-41"/>
     </defs>
     <g transform="translate(162.950312 317.146562)scale(0.36 -0.36)">
      <use xlink:href="#DejaVuSans-84"/>
      <use x="61.037109" xlink:href="#DejaVuSans-105"/>
      <use x="88.820312" xlink:href="#DejaVuSans-109"/>
      <use x="186.232422" xlink:href="#DejaVuSans-101"/>
      <use x="247.755859" xlink:href="#DejaVuSans-32"/>
      <use x="279.542969" xlink:href="#DejaVuSans-40"/>
      <use x="318.556641" xlink:href="#DejaVuSans-115"/>
      <use x="370.65625" xlink:href="#DejaVuSans-101"/>
      <use x="432.179688" xlink:href="#DejaVuSans-99"/>
      <use x="487.160156" xlink:href="#DejaVuSans-41"/>
     </g>
    </g>
   </g>
   <g id="matplotlib.axis_2">
    <g id="ytick_1">
     <g id="line2d_7">
      <path clip-path="url(#pe7e4ea475a)" d="M 90.26125 251.322187 
L 425.06125 251.322187 
" style="fill:none;stroke:#666666;stroke-dasharray:0.8,1.32;stroke-dashoffset:0;stroke-width:0.8;"/>
     </g>
     <g id="line2d_8">
      <defs>
       <path d="M 0 0 
L 3.5 0 
" id="m5fba718bba" style="stroke:#000000;stroke-width:0.8;"/>
      </defs>
      <g>
       <use style="stroke:#000000;stroke-width:0.8;" x="90.26125" xlink:href="#m5fba718bba" y="251.322187"/>
      </g>
     </g>
     <g id="text_5">
      <!-- 0 -->
      <defs>
       <path d="M 31.78125 66.40625 
Q 24.171875 66.40625 20.328125 58.90625 
Q 16.5 51.421875 16.5 36.375 
Q 16.5 21.390625 20.328125 13.890625 
Q 24.171875 6.390625 31.78125 6.390625 
Q 39.453125 6.390625 43.28125 13.890625 
Q 47.125 21.390625 47.125 36.375 
Q 47.125 51.421875 43.28125 58.90625 
Q 39.453125 66.40625 31.78125 66.40625 
z
M 31.78125 74.21875 
Q 44.046875 74.21875 50.515625 64.515625 
Q 56.984375 54.828125 56.984375 36.375 
Q 56.984375 17.96875 50.515625 8.265625 
Q 44.046875 -1.421875 31.78125 -1.421875 
Q 19.53125 -1.421875 13.0625 8.265625 
Q 6.59375 17.96875 6.59375 36.375 
Q 6.59375 54.828125 13.0625 64.515625 
Q 19.53125 74.21875 31.78125 74.21875 
z
" id="DejaVuSans-48"/>
      </defs>
      <g transform="translate(66.40125 263.479687)scale(0.32 -0.32)">
       <use xlink:href="#DejaVuSans-48"/>
      </g>
     </g>
    </g>
    <g id="ytick_2">
     <g id="line2d_9">
      <path clip-path="url(#pe7e4ea475a)" d="M 90.26125 137.538828 
L 425.06125 137.538828 
" style="fill:none;stroke:#666666;stroke-dasharray:0.8,1.32;stroke-dashoffset:0;stroke-width:0.8;"/>
     </g>
     <g id="line2d_10">
      <g>
       <use style="stroke:#000000;stroke-width:0.8;" x="90.26125" xlink:href="#m5fba718bba" y="137.538828"/>
      </g>
     </g>
     <g id="text_6">
      <!-- 50 -->
      <defs>
       <path d="M 10.796875 72.90625 
L 49.515625 72.90625 
L 49.515625 64.59375 
L 19.828125 64.59375 
L 19.828125 46.734375 
Q 21.96875 47.46875 24.109375 47.828125 
Q 26.265625 48.1875 28.421875 48.1875 
Q 40.625 48.1875 47.75 41.5 
Q 54.890625 34.8125 54.890625 23.390625 
Q 54.890625 11.625 47.5625 5.09375 
Q 40.234375 -1.421875 26.90625 -1.421875 
Q 22.3125 -1.421875 17.546875 -0.640625 
Q 12.796875 0.140625 7.71875 1.703125 
L 7.71875 11.625 
Q 12.109375 9.234375 16.796875 8.0625 
Q 21.484375 6.890625 26.703125 6.890625 
Q 35.15625 6.890625 40.078125 11.328125 
Q 45.015625 15.765625 45.015625 23.390625 
Q 45.015625 31 40.078125 35.4375 
Q 35.15625 39.890625 26.703125 39.890625 
Q 22.75 39.890625 18.8125 39.015625 
Q 14.890625 38.140625 10.796875 36.28125 
z
" id="DejaVuSans-53"/>
      </defs>
      <g transform="translate(46.04125 149.696328)scale(0.32 -0.32)">
       <use xlink:href="#DejaVuSans-53"/>
       <use x="63.623047" xlink:href="#DejaVuSans-48"/>
      </g>
     </g>
    </g>
    <g id="text_7">
     <!-- Frame Number -->
     <defs>
      <path d="M 9.8125 72.90625 
L 51.703125 72.90625 
L 51.703125 64.59375 
L 19.671875 64.59375 
L 19.671875 43.109375 
L 48.578125 43.109375 
L 48.578125 34.8125 
L 19.671875 34.8125 
L 19.671875 0 
L 9.8125 0 
z
" id="DejaVuSans-70"/>
      <path d="M 41.109375 46.296875 
Q 39.59375 47.171875 37.8125 47.578125 
Q 36.03125 48 33.890625 48 
Q 26.265625 48 22.1875 43.046875 
Q 18.109375 38.09375 18.109375 28.8125 
L 18.109375 0 
L 9.078125 0 
L 9.078125 54.6875 
L 18.109375 54.6875 
L 18.109375 46.1875 
Q 20.953125 51.171875 25.484375 53.578125 
Q 30.03125 56 36.53125 56 
Q 37.453125 56 38.578125 55.875 
Q 39.703125 55.765625 41.0625 55.515625 
z
" id="DejaVuSans-114"/>
      <path d="M 34.28125 27.484375 
Q 23.390625 27.484375 19.1875 25 
Q 14.984375 22.515625 14.984375 16.5 
Q 14.984375 11.71875 18.140625 8.90625 
Q 21.296875 6.109375 26.703125 6.109375 
Q 34.1875 6.109375 38.703125 11.40625 
Q 43.21875 16.703125 43.21875 25.484375 
L 43.21875 27.484375 
z
M 52.203125 31.203125 
L 52.203125 0 
L 43.21875 0 
L 43.21875 8.296875 
Q 40.140625 3.328125 35.546875 0.953125 
Q 30.953125 -1.421875 24.3125 -1.421875 
Q 15.921875 -1.421875 10.953125 3.296875 
Q 6 8.015625 6 15.921875 
Q 6 25.140625 12.171875 29.828125 
Q 18.359375 34.515625 30.609375 34.515625 
L 43.21875 34.515625 
L 43.21875 35.40625 
Q 43.21875 41.609375 39.140625 45 
Q 35.0625 48.390625 27.6875 48.390625 
Q 23 48.390625 18.546875 47.265625 
Q 14.109375 46.140625 10.015625 43.890625 
L 10.015625 52.203125 
Q 14.9375 54.109375 19.578125 55.046875 
Q 24.21875 56 28.609375 56 
Q 40.484375 56 46.34375 49.84375 
Q 52.203125 43.703125 52.203125 31.203125 
z
" id="DejaVuSans-97"/>
      <path d="M 9.8125 72.90625 
L 23.09375 72.90625 
L 55.421875 11.921875 
L 55.421875 72.90625 
L 64.984375 72.90625 
L 64.984375 0 
L 51.703125 0 
L 19.390625 60.984375 
L 19.390625 0 
L 9.8125 0 
z
" id="DejaVuSans-78"/>
      <path d="M 8.5 21.578125 
L 8.5 54.6875 
L 17.484375 54.6875 
L 17.484375 21.921875 
Q 17.484375 14.15625 20.5 10.265625 
Q 23.53125 6.390625 29.59375 6.390625 
Q 36.859375 6.390625 41.078125 11.03125 
Q 45.3125 15.671875 45.3125 23.6875 
L 45.3125 54.6875 
L 54.296875 54.6875 
L 54.296875 0 
L 45.3125 0 
L 45.3125 8.40625 
Q 42.046875 3.421875 37.71875 1 
Q 33.40625 -1.421875 27.6875 -1.421875 
Q 18.265625 -1.421875 13.375 4.4375 
Q 8.5 10.296875 8.5 21.578125 
z
M 31.109375 56 
z
" id="DejaVuSans-117"/>
      <path d="M 48.6875 27.296875 
Q 48.6875 37.203125 44.609375 42.84375 
Q 40.53125 48.484375 33.40625 48.484375 
Q 26.265625 48.484375 22.1875 42.84375 
Q 18.109375 37.203125 18.109375 27.296875 
Q 18.109375 17.390625 22.1875 11.75 
Q 26.265625 6.109375 33.40625 6.109375 
Q 40.53125 6.109375 44.609375 11.75 
Q 48.6875 17.390625 48.6875 27.296875 
z
M 18.109375 46.390625 
Q 20.953125 51.265625 25.265625 53.625 
Q 29.59375 56 35.59375 56 
Q 45.5625 56 51.78125 48.09375 
Q 58.015625 40.1875 58.015625 27.296875 
Q 58.015625 14.40625 51.78125 6.484375 
Q 45.5625 -1.421875 35.59375 -1.421875 
Q 29.59375 -1.421875 25.265625 0.953125 
Q 20.953125 3.328125 18.109375 8.203125 
L 18.109375 0 
L 9.078125 0 
L 9.078125 75.984375 
L 18.109375 75.984375 
z
" id="DejaVuSans-98"/>
     </defs>
     <g transform="translate(34.554375 278.004375)rotate(-90)scale(0.36 -0.36)">
      <use xlink:href="#DejaVuSans-70"/>
      <use x="57.410156" xlink:href="#DejaVuSans-114"/>
      <use x="98.523438" xlink:href="#DejaVuSans-97"/>
      <use x="159.802734" xlink:href="#DejaVuSans-109"/>
      <use x="257.214844" xlink:href="#DejaVuSans-101"/>
      <use x="318.738281" xlink:href="#DejaVuSans-32"/>
      <use x="350.525391" xlink:href="#DejaVuSans-78"/>
      <use x="425.330078" xlink:href="#DejaVuSans-117"/>
      <use x="488.708984" xlink:href="#DejaVuSans-109"/>
      <use x="586.121094" xlink:href="#DejaVuSans-98"/>
      <use x="649.597656" xlink:href="#DejaVuSans-101"/>
      <use x="711.121094" xlink:href="#DejaVuSans-114"/>
     </g>
    </g>
   </g>
   <g id="line2d_11">
    <path clip-path="url(#pe7e4ea475a)" d="M 90.26125 251.322187 
L 90.26125 249.04652 
L 90.570809 249.04652 
L 90.570809 251.322187 
L 91.244087 251.322187 
L 91.244087 249.04652 
L 91.546611 249.04652 
L 91.546611 246.770853 
L 91.841067 246.770853 
L 91.841067 249.04652 
L 103.06682 249.04652 
L 103.06682 246.770853 
L 103.313546 246.770853 
L 103.313546 244.495186 
L 112.125965 244.495186 
L 112.125965 246.770853 
L 112.256666 246.770853 
L 112.256666 244.495186 
L 112.393675 244.495186 
L 112.393675 242.219519 
L 119.98751 242.219519 
L 119.98751 244.495186 
L 120.049979 239.943852 
L 120.529116 239.943852 
L 120.529116 242.219519 
L 120.58734 239.943852 
L 121.002188 239.943852 
L 121.002188 237.668184 
L 121.563809 237.668184 
L 121.563809 233.11685 
L 121.932563 233.11685 
L 121.932563 237.668184 
L 122.008376 235.392517 
L 122.069026 235.392517 
L 122.069026 230.841183 
L 122.167886 230.841183 
L 122.197604 230.841183 
L 122.197604 233.11685 
L 122.305562 228.565516 
L 122.431108 228.565516 
L 122.431108 230.841183 
L 122.499643 228.565516 
L 122.662792 228.565516 
L 122.662792 226.289848 
L 122.731933 226.289848 
L 123.135864 226.289848 
L 123.135864 224.014181 
L 123.235936 224.014181 
L 123.702943 224.014181 
L 123.702943 221.738514 
L 123.741153 224.014181 
L 123.943118 224.014181 
L 124.011047 219.462847 
L 124.403454 219.462847 
L 124.403454 221.738514 
L 124.472595 219.462847 
L 125.184629 219.462847 
L 125.184629 214.911512 
L 126.455858 214.911512 
L 126.455858 212.635845 
L 127.291012 212.635845 
L 127.291012 210.360178 
L 128.003652 210.360178 
L 128.003652 208.084511 
L 128.495525 208.084511 
L 128.495525 210.360178 
L 128.562847 208.084511 
L 128.618039 208.084511 
L 128.618039 203.533177 
L 129.182086 203.533177 
L 129.182086 208.084511 
L 129.24031 205.808844 
L 129.863188 205.808844 
L 129.895333 201.257509 
L 130.619497 201.257509 
L 130.619497 198.981842 
L 130.896668 198.981842 
L 130.896668 201.257509 
L 130.973088 198.981842 
L 131.448585 198.981842 
L 131.448585 196.706175 
L 132.124836 196.706175 
L 132.124836 192.154841 
L 132.220663 194.430508 
L 132.431119 194.430508 
L 132.431119 192.154841 
L 133.090994 192.154841 
L 133.090994 189.879173 
L 133.1662 189.879173 
L 133.292959 189.879173 
L 133.292959 187.603506 
L 133.667778 187.603506 
L 133.667778 189.879173 
L 133.766031 183.052172 
L 134.169355 183.052172 
L 134.169355 187.603506 
L 134.272461 183.052172 
L 134.829836 183.052172 
L 134.829836 178.500837 
L 135.272583 178.500837 
L 135.272583 180.776505 
L 135.400555 180.776505 
L 135.432093 176.22517 
L 135.951866 176.22517 
L 135.951866 178.500837 
L 136.035563 173.949503 
L 136.480129 173.949503 
L 136.480129 176.22517 
L 136.539567 173.949503 
L 136.753055 173.949503 
L 136.753055 171.673836 
L 137.191557 171.673836 
L 137.191557 173.949503 
L 137.266157 171.673836 
L 137.326807 171.673836 
L 137.326807 169.398169 
L 137.798666 169.398169 
L 137.798666 171.673836 
L 137.873265 167.122501 
L 138.340272 167.122501 
L 138.340272 169.398169 
L 138.400923 167.122501 
L 138.56953 167.122501 
L 138.56953 164.846834 
L 138.984378 164.846834 
L 138.984378 167.122501 
L 139.015309 164.846834 
L 139.587241 164.846834 
L 139.587241 162.571167 
L 139.625451 164.846834 
L 139.828023 164.846834 
L 139.828023 162.571167 
L 140.249542 162.571167 
L 140.249542 160.2955 
L 140.356893 160.2955 
L 140.866355 160.2955 
L 140.866355 158.019833 
L 140.976738 160.2955 
L 141.005244 160.2955 
L 141.005244 158.019833 
L 141.370965 158.019833 
L 141.370965 153.468498 
L 141.94411 153.468498 
L 141.94411 155.744166 
L 141.973222 153.468498 
L 142.173974 153.468498 
L 142.173974 151.192831 
L 142.579118 151.192831 
L 142.579118 153.468498 
L 142.65493 151.192831 
L 143.251729 151.192831 
L 143.251729 148.917164 
L 143.325115 148.917164 
L 143.427614 148.917164 
L 143.427614 146.641497 
L 143.971041 146.641497 
L 143.971041 148.917164 
L 144.045034 146.641497 
L 144.103258 146.641497 
L 144.103258 144.36583 
L 144.481109 144.36583 
L 144.481109 146.641497 
L 144.679435 146.641497 
L 144.679435 144.36583 
L 145.071842 144.36583 
L 145.071842 142.090162 
L 145.114298 144.36583 
L 145.310804 144.36583 
L 145.310804 142.090162 
L 145.703211 142.090162 
L 145.703211 139.814495 
L 146.264226 139.814495 
L 146.264226 137.538828 
L 146.395837 137.538828 
L 146.395837 139.814495 
L 146.548069 139.814495 
L 146.548069 137.538828 
L 146.861024 137.538828 
L 146.861024 135.263161 
L 146.933805 137.538828 
L 147.131525 137.538828 
L 147.131525 135.263161 
L 147.485722 135.263161 
L 147.485722 132.987494 
L 147.595499 132.987494 
L 147.661001 132.987494 
L 147.661001 130.711826 
L 148.030968 130.711826 
L 148.030968 132.987494 
L 148.100715 130.711826 
L 148.163185 130.711826 
L 148.163185 128.436159 
L 148.615636 128.436159 
L 148.615636 130.711826 
L 148.642929 128.436159 
L 148.833977 128.436159 
L 148.833977 126.160492 
L 149.267626 126.160492 
L 149.267626 128.436159 
L 149.344045 126.160492 
L 149.579975 126.160492 
L 149.579975 123.884825 
L 149.948122 123.884825 
L 149.948122 126.160492 
L 150.034245 123.884825 
L 150.16525 123.884825 
L 150.16525 121.609158 
L 150.698365 121.609158 
L 150.698365 119.33349 
L 151.077429 119.33349 
L 151.077429 121.609158 
L 151.144751 119.33349 
L 151.345503 119.33349 
L 151.345503 117.057823 
L 151.728813 117.057823 
L 151.728813 119.33349 
L 151.755499 114.782156 
L 151.879832 114.782156 
L 151.879832 117.057823 
L 151.979905 114.782156 
L 152.321366 114.782156 
L 152.321366 117.057823 
L 152.458435 117.057823 
L 152.458435 112.506489 
L 152.532428 112.506489 
L 152.950309 112.506489 
L 152.950309 110.230822 
L 152.989731 114.782156 
L 153.04371 112.506489 
L 153.073429 112.506489 
L 153.135292 107.955155 
L 153.499193 107.955155 
L 153.499193 110.230822 
L 153.567122 107.955155 
L 153.627165 107.955155 
L 153.627165 105.679487 
L 153.991067 105.679487 
L 153.991067 107.955155 
L 154.06506 105.679487 
L 154.259747 105.679487 
L 154.259747 103.40382 
L 154.604241 103.40382 
L 154.604241 105.679487 
L 154.669136 103.40382 
L 155.589201 103.40382 
L 155.589201 101.128153 
L 156.122316 101.128153 
L 156.122316 98.852486 
L 156.517149 98.852486 
L 156.517149 101.128153 
L 156.586291 98.852486 
L 157.218873 98.852486 
L 157.218873 94.301151 
L 157.910892 94.301151 
L 157.910892 92.025484 
L 158.274793 92.025484 
L 158.274793 96.576819 
L 158.339689 94.301151 
L 158.48525 94.301151 
L 158.548326 89.749817 
L 158.918292 89.749817 
L 158.918292 92.025484 
L 158.98804 89.749817 
L 159.173023 89.749817 
L 159.173023 87.47415 
L 159.588477 87.47415 
L 159.588477 89.749817 
L 159.680666 85.198483 
L 160.060943 85.198483 
L 160.060943 87.47415 
L 160.091268 85.198483 
L 160.775403 85.198483 
L 160.775403 82.922815 
L 161.557184 82.922815 
L 161.557184 80.647148 
L 162.6313 80.647148 
L 162.6313 78.371481 
L 179.342867 78.371481 
L 179.342867 76.095814 
L 206.848358 76.095814 
L 206.848358 73.820147 
L 226.34741 73.820147 
L 226.34741 71.544479 
L 247.471282 71.544479 
L 247.471282 69.268812 
L 259.142208 69.268812 
L 259.142208 66.993145 
L 268.739502 66.993145 
L 268.739502 64.717478 
L 290.827106 64.717478 
L 290.827106 62.441811 
L 302.344587 62.441811 
L 302.344587 60.166144 
L 316.479125 60.166144 
L 316.479125 57.890476 
L 334.179291 57.890476 
L 334.179291 55.614809 
L 356.768473 55.614809 
L 356.768473 53.339142 
L 365.978819 53.339142 
L 365.978819 51.063475 
L 385.969138 51.063475 
L 385.969138 48.787808 
L 401.666026 48.787808 
L 401.666026 46.51214 
L 411.905606 46.51214 
L 411.905606 44.236473 
L 425.06125 44.236473 
L 425.06125 44.236473 
" style="fill:none;stroke:#1f77b4;stroke-linecap:square;stroke-width:1.5;"/>
   </g>
   <g id="line2d_12">
    <path clip-path="url(#pe7e4ea475a)" d="M 90.26125 251.322187 
L 90.26125 249.04652 
L 90.570809 249.04652 
L 90.570809 251.322187 
L 91.244087 251.322187 
L 91.244087 249.04652 
L 91.546611 249.04652 
L 91.546611 246.770853 
L 91.841067 246.770853 
M 425.06125 249.04652 
L 97.463163 249.04652 
L 97.463163 246.770853 
L 97.711465 246.770853 
L 97.711465 244.495186 
L 102.340776 244.495186 
L 102.340776 246.770853 
L 106.954865 246.770853 
L 106.954865 244.495186 
L 111.603766 244.495186 
L 111.603766 242.219519 
L 113.293118 242.219519 
L 113.293118 244.495186 
L 113.364079 242.219519 
L 119.014862 242.219519 
L 119.014862 237.668184 
L 124.003162 237.668184 
L 124.003162 239.943852 
L 124.067451 237.668184 
L 124.123249 237.668184 
L 124.123249 235.392517 
L 124.491396 235.392517 
L 124.491396 237.668184 
L 124.522935 233.11685 
L 124.593289 233.11685 
L 124.766142 233.11685 
L 124.766142 230.841183 
L 124.875919 230.841183 
L 125.066967 230.841183 
L 125.066967 226.289848 
L 125.134895 230.841183 
L 125.207676 230.841183 
L 125.268326 224.014181 
L 125.467259 224.014181 
L 125.467259 228.565516 
L 125.5364 226.289848 
L 125.598263 226.289848 
L 125.598263 224.014181 
L 125.799622 224.014181 
L 125.799622 221.738514 
L 125.839651 226.289848 
L 125.869976 221.738514 
L 125.9561 221.738514 
L 125.9561 224.014181 
L 126.056779 217.18718 
L 126.467988 217.18718 
L 126.467988 221.738514 
L 126.53349 219.462847 
L 126.593534 219.462847 
L 126.593534 214.911512 
L 127.207314 214.911512 
L 127.207314 219.462847 
L 127.272816 217.18718 
L 127.529973 217.18718 
L 127.529973 212.635845 
L 127.841109 212.635845 
L 127.841109 214.911512 
L 127.913283 212.635845 
L 127.97454 212.635845 
L 127.97454 208.084511 
L 128.471872 208.084511 
L 128.471872 212.635845 
L 128.543439 210.360178 
L 129.07049 210.360178 
L 129.097176 205.808844 
L 129.718841 205.808844 
L 129.718841 203.533177 
L 129.783736 208.084511 
L 129.857123 208.084511 
L 129.857123 203.533177 
L 129.910495 205.808844 
L 129.977817 205.808844 
L 129.977817 201.257509 
L 130.426629 201.257509 
L 130.426629 203.533177 
L 130.456954 201.257509 
L 131.011297 201.257509 
L 131.011297 198.981842 
L 131.084684 198.981842 
L 131.182937 198.981842 
L 131.182937 196.706175 
L 131.626897 196.706175 
L 131.626897 198.981842 
L 131.696038 196.706175 
L 131.754263 196.706175 
L 131.754263 194.430508 
L 132.286772 194.430508 
L 132.286772 196.706175 
L 132.358339 194.430508 
L 132.422628 194.430508 
L 132.422628 192.154841 
L 132.809577 192.154841 
L 132.809577 194.430508 
L 132.870834 189.879173 
L 132.973333 189.879173 
L 132.973333 192.154841 
L 133.034589 192.154841 
L 133.372411 192.154841 
L 133.372411 187.603506 
L 133.505842 187.603506 
L 133.505842 189.879173 
L 133.593178 185.327839 
L 134.111131 185.327839 
L 134.111131 187.603506 
L 134.177846 185.327839 
L 134.70611 185.327839 
L 134.70611 183.052172 
L 134.807396 183.052172 
L 134.897158 183.052172 
L 134.897158 180.776505 
L 135.270157 180.776505 
L 135.270157 183.052172 
L 135.342331 180.776505 
L 135.54369 180.776505 
L 135.54369 178.500837 
L 135.917295 178.500837 
L 135.917295 180.776505 
L 135.943375 178.500837 
L 136.179304 178.500837 
L 136.179304 173.949503 
L 136.551697 173.949503 
L 136.551697 178.500837 
L 136.656015 176.22517 
L 137.095123 176.22517 
L 137.163051 171.673836 
L 137.235831 171.673836 
L 137.235831 173.949503 
L 137.263731 171.673836 
L 137.693741 171.673836 
L 137.693741 169.398169 
L 137.73195 169.398169 
L 137.832023 169.398169 
L 137.832023 171.673836 
L 137.9418 167.122501 
L 138.270524 167.122501 
L 138.270524 169.398169 
L 138.479768 169.398169 
L 138.511912 164.846834 
L 138.923728 164.846834 
L 138.923728 167.122501 
L 138.955872 164.846834 
L 139.561768 164.846834 
L 139.561768 162.571167 
L 139.602404 164.846834 
L 139.676397 164.846834 
L 139.741899 160.2955 
L 140.295636 160.2955 
L 140.295636 162.571167 
L 140.387824 158.019833 
L 140.794181 158.019833 
L 140.794181 160.2955 
L 140.974919 160.2955 
L 140.974919 158.019833 
L 141.034356 158.019833 
L 141.457695 158.019833 
L 141.457695 153.468498 
L 141.563833 153.468498 
L 141.659053 153.468498 
L 141.659053 151.192831 
L 142.062984 151.192831 
L 142.062984 155.744166 
L 142.137584 153.468498 
L 142.236444 153.468498 
L 142.236444 151.192831 
L 142.639161 151.192831 
L 142.639161 148.917164 
L 142.710729 148.917164 
L 142.801097 148.917164 
L 142.801097 146.641497 
L 143.212913 146.641497 
L 143.212913 148.917164 
L 143.241418 146.641497 
L 143.336033 146.641497 
L 143.336033 144.36583 
L 143.892195 144.36583 
L 143.892195 146.641497 
L 143.964369 144.36583 
L 144.42713 144.36583 
L 144.42713 142.090162 
L 144.660027 142.090162 
L 144.660027 139.814495 
L 145.066384 139.814495 
L 145.066384 142.090162 
L 145.133706 139.814495 
L 145.284725 139.814495 
L 145.284725 137.538828 
L 145.747486 137.538828 
L 145.747486 139.814495 
L 145.779631 137.538828 
L 145.871213 137.538828 
L 145.871213 135.263161 
L 145.913668 135.263161 
L 146.323663 135.263161 
L 146.323663 137.538828 
L 146.473469 137.538828 
L 146.573542 130.711826 
L 147.037517 130.711826 
L 147.037517 132.987494 
L 147.132131 130.711826 
L 147.497246 130.711826 
L 147.497246 128.436159 
L 147.599744 128.436159 
L 147.839919 128.436159 
L 147.839919 126.160492 
L 148.185626 126.160492 
L 148.185626 128.436159 
L 148.275995 123.884825 
L 148.68599 123.884825 
L 148.68599 126.160492 
L 148.713889 123.884825 
L 148.941934 123.884825 
L 148.941934 121.609158 
L 149.322211 121.609158 
L 149.322211 123.884825 
L 149.387714 121.609158 
L 149.451396 121.609158 
L 149.451396 119.33349 
L 149.985725 119.33349 
L 149.985725 121.609158 
L 150.086404 117.057823 
L 150.487302 117.057823 
L 150.487302 119.33349 
L 150.560083 117.057823 
L 150.764474 117.057823 
L 150.764474 114.782156 
L 151.180535 114.782156 
L 151.180535 117.057823 
L 151.269084 112.506489 
L 151.864669 112.506489 
L 151.864669 114.782156 
L 151.970201 110.230822 
L 152.386868 110.230822 
L 152.386868 112.506489 
L 152.416586 110.230822 
L 152.608848 110.230822 
L 152.608848 107.955155 
L 152.980634 107.955155 
L 152.980634 105.679487 
L 153.024302 110.230822 
L 153.058266 107.955155 
L 153.279639 107.955155 
L 153.279639 103.40382 
L 153.606544 103.40382 
L 153.606544 107.955155 
L 153.636263 105.679487 
L 153.728451 105.679487 
L 153.728451 103.40382 
L 154.206375 103.40382 
L 154.206375 101.128153 
L 154.276123 103.40382 
L 154.345264 103.40382 
L 154.376196 98.852486 
L 154.757686 98.852486 
L 154.757686 101.128153 
L 154.830466 98.852486 
L 155.02394 98.852486 
L 155.02394 96.576819 
L 155.392087 96.576819 
L 155.392087 98.852486 
L 155.496406 94.301151 
L 155.898517 94.301151 
L 155.898517 96.576819 
L 155.967658 94.301151 
L 156.223602 94.301151 
L 156.223602 92.025484 
L 156.56385 92.025484 
L 156.56385 94.301151 
L 156.592356 92.025484 
L 156.711837 92.025484 
L 156.711837 89.749817 
L 157.095146 89.749817 
L 157.095146 92.025484 
L 157.155796 89.749817 
L 157.354729 89.749817 
L 157.354729 87.47415 
L 157.749562 87.47415 
L 157.749562 89.749817 
L 157.813851 87.47415 
L 158.0049 87.47415 
L 158.0049 82.922815 
L 158.38639 82.922815 
L 158.38639 87.47415 
L 158.455531 82.922815 
L 158.515575 82.922815 
L 158.515575 80.647148 
L 159.021398 80.647148 
L 159.021398 85.198483 
L 159.04869 82.922815 
L 159.247623 82.922815 
L 159.247623 80.647148 
L 159.615163 80.647148 
L 159.615163 78.371481 
L 159.686124 78.371481 
L 159.78741 78.371481 
L 159.78741 76.095814 
L 160.204077 76.095814 
L 160.204077 78.371481 
L 160.275038 76.095814 
L 160.431516 76.095814 
L 160.431516 73.820147 
L 160.836659 73.820147 
L 160.836659 76.095814 
L 160.923996 71.544479 
L 161.338843 71.544479 
L 161.338843 73.820147 
L 161.372807 71.544479 
L 161.606917 71.544479 
L 161.606917 69.268812 
L 161.947772 69.268812 
L 161.947772 71.544479 
L 161.982949 69.268812 
L 162.540931 69.268812 
L 162.540931 66.993145 
L 175.383619 66.993145 
L 175.383619 64.717478 
L 202.097018 64.717478 
L 202.097018 62.441811 
L 228.410124 62.441811 
L 228.410124 60.166144 
L 253.892929 60.166144 
L 253.892929 57.890476 
L 279.354507 57.890476 
L 279.354507 55.614809 
L 304.444904 55.614809 
L 304.444904 53.339142 
L 328.51092 53.339142 
L 328.51092 51.063475 
L 351.515556 51.063475 
L 351.515556 48.787808 
L 373.8027 48.787808 
L 373.8027 46.51214 
L 396.062551 46.51214 
L 396.062551 44.236473 
L 417.869345 44.236473 
L 417.869345 44.236473 
" style="fill:none;stroke:#ff7f0e;stroke-linecap:square;stroke-width:1.5;"/>
   </g>
   <g id="line2d_13">
    <path clip-path="url(#pe7e4ea475a)" d="M 90.26125 251.322187 
L 90.26125 249.04652 
L 90.570809 249.04652 
L 90.570809 251.322187 
L 91.244087 251.322187 
L 91.244087 249.04652 
L 91.546611 249.04652 
L 91.546611 246.770853 
L 91.841067 246.770853 
M 157.818097 180.776505 
L 157.910892 180.776505 
M 417.869345 249.04652 
L 93.637224 249.04652 
L 93.637224 246.770853 
L 93.893108 246.770853 
L 93.893108 244.495186 
L 95.471591 244.495186 
L 95.471591 246.770853 
L 96.536306 246.770853 
L 96.536306 244.495186 
L 98.140444 244.495186 
L 98.140444 242.219519 
L 99.038674 242.219519 
L 99.038674 244.495186 
L 99.97099 244.495186 
L 99.97099 242.219519 
L 100.851631 242.219519 
L 100.851631 239.943852 
L 101.552141 239.943852 
L 101.552141 242.219519 
L 102.415194 242.219519 
L 102.415194 239.943852 
L 103.093749 239.943852 
L 103.093749 237.668184 
L 103.807239 237.668184 
L 103.807239 239.943852 
L 104.702557 239.943852 
L 104.702557 237.668184 
L 105.391908 237.668184 
L 105.391908 235.392517 
L 106.086171 235.392517 
L 106.086171 237.668184 
L 106.962203 237.668184 
L 106.962203 235.392517 
L 107.632449 235.392517 
L 107.632449 233.11685 
L 108.314704 233.11685 
L 108.314704 235.392517 
L 109.169205 235.392517 
L 109.169205 233.11685 
L 109.827927 233.11685 
L 109.827927 230.841183 
L 110.512608 230.841183 
L 110.512608 233.11685 
L 111.476765 233.11685 
L 111.476765 230.841183 
L 112.133546 230.841183 
L 112.133546 228.565516 
L 112.831752 228.565516 
L 112.831752 230.841183 
L 113.700202 230.841183 
L 113.700202 228.565516 
L 114.399015 228.565516 
L 114.399015 226.289848 
L 114.845643 226.289848 
L 114.845643 228.565516 
L 114.909993 226.289848 
L 115.780445 226.289848 
L 115.780445 224.014181 
L 116.942928 224.014181 
L 116.942928 226.289848 
L 117.002547 224.014181 
L 118.043791 224.014181 
L 118.043791 221.738514 
L 119.257281 221.738514 
L 119.257281 224.014181 
L 119.331881 221.738514 
L 120.228898 221.738514 
L 120.228898 219.462847 
L 121.323634 219.462847 
L 121.323634 221.738514 
L 121.452213 221.738514 
L 121.452213 219.462847 
L 122.334067 219.462847 
L 122.334067 217.18718 
L 123.557383 217.18718 
L 123.557383 219.462847 
L 123.6429 217.18718 
L 124.51687 217.18718 
L 124.51687 214.911512 
L 125.762625 214.911512 
L 125.762625 217.18718 
L 125.813572 214.911512 
L 126.714228 214.911512 
L 126.714228 212.635845 
L 127.895088 212.635845 
L 127.895088 214.911512 
L 127.947854 212.635845 
L 128.820004 212.635845 
L 128.820004 210.360178 
L 130.037254 210.360178 
L 130.037254 212.635845 
L 130.100937 210.360178 
L 131.178692 210.360178 
L 131.178692 208.084511 
L 132.359552 208.084511 
L 132.359552 210.360178 
L 132.454166 208.084511 
L 133.3154 208.084511 
L 133.3154 205.808844 
L 134.382844 205.808844 
L 134.382844 208.084511 
L 134.541141 208.084511 
L 134.541141 205.808844 
L 135.301089 205.808844 
L 135.301089 203.533177 
L 136.537747 203.533177 
L 136.537747 205.808844 
L 136.591119 203.533177 
L 137.615502 203.533177 
L 137.615502 201.257509 
L 138.713878 201.257509 
L 138.713878 203.533177 
L 138.767856 201.257509 
L 139.81286 201.257509 
L 139.81286 198.981842 
L 140.843308 198.981842 
L 140.843308 201.257509 
L 140.895467 198.981842 
L 141.985958 198.981842 
L 141.985958 196.706175 
L 143.028536 196.706175 
L 143.028536 198.981842 
L 143.077663 196.706175 
L 144.143894 196.706175 
L 144.143894 194.430508 
L 145.193749 194.430508 
L 145.193749 196.706175 
L 145.250761 194.430508 
L 146.291519 194.430508 
L 146.291519 192.154841 
L 147.346833 192.154841 
L 147.346833 194.430508 
L 147.378978 192.154841 
L 148.292977 192.154841 
L 148.292977 189.879173 
L 149.533881 189.879173 
L 149.533881 192.154841 
L 149.582401 189.879173 
L 150.461829 189.879173 
L 150.461829 187.603506 
L 151.676654 187.603506 
L 151.676654 189.879173 
L 151.747614 187.603506 
L 152.579736 187.603506 
L 152.579736 185.327839 
L 153.781217 185.327839 
L 153.781217 187.603506 
L 153.889781 185.327839 
L 154.74131 185.327839 
L 154.74131 183.052172 
L 155.802083 183.052172 
L 155.802083 185.327839 
L 155.870618 183.052172 
L 157.977001 183.052172 
L 157.977001 180.776505 
L 158.875837 180.776505 
L 158.875837 178.500837 
L 159.948133 178.500837 
L 159.948133 180.776505 
L 160.127052 180.776505 
L 160.127052 178.500837 
L 160.985252 178.500837 
L 160.985252 176.22517 
L 162.045419 176.22517 
L 162.045419 178.500837 
L 162.118805 176.22517 
L 163.052213 176.22517 
L 163.052213 173.949503 
L 164.191831 173.949503 
L 164.191831 176.22517 
L 164.263398 173.949503 
L 165.145252 173.949503 
L 165.145252 171.673836 
L 166.225433 171.673836 
L 166.225433 173.949503 
L 166.318835 171.673836 
L 167.160053 171.673836 
L 167.160053 169.398169 
L 168.219007 169.398169 
L 168.219007 171.673836 
L 168.265707 169.398169 
L 169.170002 169.398169 
L 169.170002 167.122501 
L 170.312653 167.122501 
L 170.312653 169.398169 
L 170.35996 167.122501 
L 171.256977 167.122501 
L 171.256977 164.846834 
L 172.280147 164.846834 
L 172.280147 167.122501 
L 172.345042 164.846834 
L 173.374883 164.846834 
L 173.374883 162.571167 
L 174.27372 162.571167 
L 174.27372 164.846834 
L 174.464768 164.846834 
L 174.464768 162.571167 
L 175.384832 162.571167 
L 175.384832 160.2955 
L 176.440753 160.2955 
L 176.440753 162.571167 
L 176.508075 160.2955 
L 177.484544 160.2955 
L 177.484544 158.019833 
L 178.427048 158.019833 
L 178.427048 160.2955 
L 178.649635 160.2955 
L 178.649635 158.019833 
L 179.472659 158.019833 
L 179.472659 155.744166 
L 180.500074 155.744166 
L 180.500074 158.019833 
L 180.608638 155.744166 
L 181.51172 155.744166 
L 181.51172 153.468498 
L 182.589474 153.468498 
L 182.589474 155.744166 
L 182.64406 153.468498 
L 183.5059 153.468498 
L 183.5059 151.192831 
L 184.607308 151.192831 
L 184.607308 153.468498 
L 184.805028 153.468498 
L 184.805028 151.192831 
L 185.517668 151.192831 
L 185.517668 148.917164 
L 186.588751 148.917164 
L 186.588751 151.192831 
L 186.779193 151.192831 
L 186.779193 148.917164 
L 188.618715 148.917164 
L 188.618715 146.641497 
L 188.722427 146.641497 
L 189.637032 146.641497 
L 189.637032 144.36583 
L 190.706296 144.36583 
L 190.706296 146.641497 
L 190.776044 144.36583 
L 191.668209 144.36583 
L 191.668209 142.090162 
L 192.721704 142.090162 
L 192.721704 144.36583 
L 192.749603 142.090162 
L 193.661782 142.090162 
L 193.661782 139.814495 
L 194.711638 139.814495 
L 194.711638 142.090162 
L 194.766223 139.814495 
L 195.629276 139.814495 
L 195.629276 137.538828 
L 196.703392 137.538828 
L 196.703392 139.814495 
L 196.730684 137.538828 
L 197.608293 137.538828 
L 197.608293 135.263161 
L 198.720619 135.263161 
L 198.720619 137.538828 
L 198.769746 135.263161 
L 199.650994 135.263161 
L 199.650994 132.987494 
L 200.71116 132.987494 
L 200.71116 135.263161 
L 200.766351 132.987494 
L 201.633043 132.987494 
L 201.633043 130.711826 
L 202.765383 130.711826 
L 202.765383 132.987494 
L 202.818149 130.711826 
L 203.669072 130.711826 
L 203.669072 128.436159 
L 204.754105 128.436159 
L 204.754105 130.711826 
L 204.797166 128.436159 
L 205.671743 128.436159 
L 205.671743 126.160492 
L 206.746465 126.160492 
L 206.746465 128.436159 
L 206.80105 126.160492 
L 207.67684 126.160492 
L 207.67684 123.884825 
L 208.73458 123.884825 
L 208.73458 126.160492 
L 208.763692 123.884825 
L 209.611582 123.884825 
L 209.611582 121.609158 
L 210.679633 121.609158 
L 210.679633 123.884825 
L 210.745742 121.609158 
L 211.591206 121.609158 
L 211.591206 119.33349 
L 212.621654 119.33349 
L 212.621654 121.609158 
L 212.687763 119.33349 
L 213.690311 119.33349 
L 213.690311 117.057823 
L 214.811128 117.057823 
L 214.811128 119.33349 
L 214.83842 117.057823 
L 215.704506 117.057823 
L 215.704506 114.782156 
L 216.796816 114.782156 
L 216.796816 117.057823 
L 216.88294 114.782156 
L 217.567074 114.782156 
L 217.567074 112.506489 
L 218.652107 112.506489 
L 218.652107 114.782156 
L 218.703053 112.506489 
L 219.531536 112.506489 
L 219.531536 110.230822 
L 220.496481 110.230822 
L 220.496481 112.506489 
L 220.615356 112.506489 
L 220.615356 110.230822 
L 221.515405 110.230822 
L 221.515405 107.955155 
L 222.596799 107.955155 
L 222.596799 110.230822 
L 222.647139 107.955155 
L 223.528993 107.955155 
L 223.528993 105.679487 
L 224.558834 105.679487 
L 224.558834 107.955155 
L 224.639499 105.679487 
L 225.52196 105.679487 
L 225.52196 103.40382 
L 226.566357 103.40382 
L 226.566357 105.679487 
L 226.631253 103.40382 
L 227.451851 103.40382 
L 227.451851 101.128153 
L 228.5011 101.128153 
L 228.5011 103.40382 
L 228.650299 103.40382 
L 228.650299 101.128153 
L 229.526695 101.128153 
L 229.526695 98.852486 
L 230.645086 98.852486 
L 230.645086 101.128153 
L 230.733029 98.852486 
L 231.463864 98.852486 
L 231.463864 96.576819 
L 232.550716 96.576819 
L 232.550716 98.852486 
L 232.627742 96.576819 
L 233.42226 96.576819 
L 233.42226 94.301151 
L 234.44361 94.301151 
L 234.44361 96.576819 
L 234.598268 96.576819 
L 234.598268 94.301151 
L 235.333956 94.301151 
L 235.333956 92.025484 
L 236.301327 92.025484 
L 236.301327 94.301151 
L 236.409285 92.025484 
L 237.312367 92.025484 
L 237.312367 89.749817 
L 238.353731 89.749817 
L 238.353731 92.025484 
L 238.418627 89.749817 
L 239.128841 89.749817 
L 239.128841 87.47415 
L 240.177484 87.47415 
L 240.177484 89.749817 
L 240.22843 87.47415 
L 241.056306 87.47415 
L 241.056306 85.198483 
L 242.067952 85.198483 
L 242.067952 87.47415 
L 242.129815 85.198483 
L 242.846095 85.198483 
L 242.846095 82.922815 
L 243.898983 82.922815 
L 243.898983 85.198483 
L 244.109439 85.198483 
L 244.109439 82.922815 
L 244.879697 82.922815 
L 244.879697 80.647148 
L 245.748815 80.647148 
L 245.748815 82.922815 
L 245.981712 82.922815 
L 245.981712 80.647148 
L 246.686468 80.647148 
L 246.686468 78.371481 
L 247.677493 78.371481 
L 247.677493 80.647148 
L 247.849739 80.647148 
L 247.849739 78.371481 
L 248.714005 78.371481 
L 248.714005 76.095814 
L 249.703817 76.095814 
L 249.703817 78.371481 
L 249.787515 76.095814 
L 250.489238 76.095814 
L 250.489238 73.820147 
L 251.647657 73.820147 
L 251.647657 76.095814 
L 251.792611 76.095814 
L 251.792611 73.820147 
L 252.675072 73.820147 
L 252.675072 71.544479 
L 253.565418 71.544479 
L 253.565418 73.820147 
L 253.717044 73.820147 
L 253.717044 71.544479 
L 254.606176 71.544479 
L 254.606176 69.268812 
L 255.641476 69.268812 
L 255.641476 71.544479 
L 255.73609 69.268812 
L 256.399604 69.268812 
L 256.399604 66.993145 
L 257.482817 66.993145 
L 257.482817 69.268812 
L 257.59502 69.268812 
L 257.59502 66.993145 
L 259.478816 66.993145 
L 259.478816 64.717478 
L 259.57525 64.717478 
L 261.409314 64.717478 
L 261.409314 62.441811 
L 261.478455 62.441811 
L 262.28207 62.441811 
L 262.28207 60.166144 
L 263.341024 60.166144 
L 263.341024 62.441811 
L 263.408345 60.166144 
L 264.355702 60.166144 
L 264.355702 57.890476 
L 265.296994 57.890476 
L 265.296994 60.166144 
L 265.395854 57.890476 
L 266.077563 57.890476 
L 266.077563 55.614809 
L 267.128025 55.614809 
L 267.128025 57.890476 
L 267.15653 55.614809 
L 268.009273 55.614809 
L 268.009273 53.339142 
L 269.037901 53.339142 
L 269.037901 55.614809 
L 269.0658 53.339142 
L 269.817256 53.339142 
L 269.817256 51.063475 
L 270.869538 51.063475 
L 270.869538 53.339142 
L 270.90047 51.063475 
L 271.678612 51.063475 
L 271.678612 48.787808 
L 272.713305 48.787808 
L 272.713305 51.063475 
L 272.741204 48.787808 
L 273.500545 48.787808 
L 273.500545 46.51214 
L 274.514011 46.51214 
L 274.514011 48.787808 
L 274.543123 46.51214 
L 275.363721 46.51214 
L 275.363721 44.236473 
L 276.345648 44.236473 
L 276.345648 46.51214 
L 276.406905 44.236473 
L 278.285849 44.236473 
L 278.285849 44.236473 
" style="fill:none;stroke:#2ca02c;stroke-linecap:square;stroke-width:1.5;"/>
   </g>
   <g id="patch_3">
    <path d="M 90.26125 251.322187 
L 90.26125 33.882187 
" style="fill:none;stroke:#000000;stroke-linecap:square;stroke-linejoin:miter;stroke-width:0.8;"/>
   </g>
   <g id="patch_4">
    <path d="M 425.06125 251.322187 
L 425.06125 33.882187 
" style="fill:none;stroke:#000000;stroke-linecap:square;stroke-linejoin:miter;stroke-width:0.8;"/>
   </g>
   <g id="patch_5">
    <path d="M 90.26125 251.322187 
L 425.06125 251.322187 
" style="fill:none;stroke:#000000;stroke-linecap:square;stroke-linejoin:miter;stroke-width:0.8;"/>
   </g>
   <g id="patch_6">
    <path d="M 90.26125 33.882187 
L 425.06125 33.882187 
" style="fill:none;stroke:#000000;stroke-linecap:square;stroke-linejoin:miter;stroke-width:0.8;"/>
   </g>
   <g id="legend_1">
    <g id="patch_7">
     <path d="M 155.854375 242.322187 
L 412.46125 242.322187 
Q 416.06125 242.322187 416.06125 238.722187 
L 416.06125 160.259062 
Q 416.06125 156.659062 412.46125 156.659062 
L 155.854375 156.659062 
Q 152.254375 156.659062 152.254375 160.259062 
L 152.254375 238.722187 
Q 152.254375 242.322187 155.854375 242.322187 
z
" style="fill:#ffffff;opacity:0.8;stroke:#cccccc;stroke-linejoin:miter;"/>
    </g>
    <g id="line2d_14">
     <path d="M 159.454375 171.23625 
L 195.454375 171.23625 
" style="fill:none;stroke:#1f77b4;stroke-linecap:square;stroke-width:1.5;"/>
    </g>
    <g id="line2d_15"/>
    <g id="text_8">
     <!-- Frame_Ours -->
     <defs>
      <path d="M 50.984375 -16.609375 
L 50.984375 -23.578125 
L -0.984375 -23.578125 
L -0.984375 -16.609375 
z
" id="DejaVuSans-95"/>
      <path d="M 39.40625 66.21875 
Q 28.65625 66.21875 22.328125 58.203125 
Q 16.015625 50.203125 16.015625 36.375 
Q 16.015625 22.609375 22.328125 14.59375 
Q 28.65625 6.59375 39.40625 6.59375 
Q 50.140625 6.59375 56.421875 14.59375 
Q 62.703125 22.609375 62.703125 36.375 
Q 62.703125 50.203125 56.421875 58.203125 
Q 50.140625 66.21875 39.40625 66.21875 
z
M 39.40625 74.21875 
Q 54.734375 74.21875 63.90625 63.9375 
Q 73.09375 53.65625 73.09375 36.375 
Q 73.09375 19.140625 63.90625 8.859375 
Q 54.734375 -1.421875 39.40625 -1.421875 
Q 24.03125 -1.421875 14.8125 8.828125 
Q 5.609375 19.09375 5.609375 36.375 
Q 5.609375 53.65625 14.8125 63.9375 
Q 24.03125 74.21875 39.40625 74.21875 
z
" id="DejaVuSans-79"/>
     </defs>
     <g transform="translate(209.854375 177.53625)scale(0.18 -0.18)">
      <use xlink:href="#DejaVuSans-70"/>
      <use x="57.410156" xlink:href="#DejaVuSans-114"/>
      <use x="98.523438" xlink:href="#DejaVuSans-97"/>
      <use x="159.802734" xlink:href="#DejaVuSans-109"/>
      <use x="257.214844" xlink:href="#DejaVuSans-101"/>
      <use x="318.738281" xlink:href="#DejaVuSans-95"/>
      <use x="368.738281" xlink:href="#DejaVuSans-79"/>
      <use x="447.449219" xlink:href="#DejaVuSans-117"/>
      <use x="510.828125" xlink:href="#DejaVuSans-114"/>
      <use x="551.941406" xlink:href="#DejaVuSans-115"/>
     </g>
    </g>
    <g id="line2d_16">
     <path d="M 159.454375 198.1575 
L 195.454375 198.1575 
" style="fill:none;stroke:#ff7f0e;stroke-linecap:square;stroke-width:1.5;"/>
    </g>
    <g id="line2d_17"/>
    <g id="text_9">
     <!-- Frame_Non-persistent -->
     <defs>
      <path d="M 30.609375 48.390625 
Q 23.390625 48.390625 19.1875 42.75 
Q 14.984375 37.109375 14.984375 27.296875 
Q 14.984375 17.484375 19.15625 11.84375 
Q 23.34375 6.203125 30.609375 6.203125 
Q 37.796875 6.203125 41.984375 11.859375 
Q 46.1875 17.53125 46.1875 27.296875 
Q 46.1875 37.015625 41.984375 42.703125 
Q 37.796875 48.390625 30.609375 48.390625 
z
M 30.609375 56 
Q 42.328125 56 49.015625 48.375 
Q 55.71875 40.765625 55.71875 27.296875 
Q 55.71875 13.875 49.015625 6.21875 
Q 42.328125 -1.421875 30.609375 -1.421875 
Q 18.84375 -1.421875 12.171875 6.21875 
Q 5.515625 13.875 5.515625 27.296875 
Q 5.515625 40.765625 12.171875 48.375 
Q 18.84375 56 30.609375 56 
z
" id="DejaVuSans-111"/>
      <path d="M 54.890625 33.015625 
L 54.890625 0 
L 45.90625 0 
L 45.90625 32.71875 
Q 45.90625 40.484375 42.875 44.328125 
Q 39.84375 48.1875 33.796875 48.1875 
Q 26.515625 48.1875 22.3125 43.546875 
Q 18.109375 38.921875 18.109375 30.90625 
L 18.109375 0 
L 9.078125 0 
L 9.078125 54.6875 
L 18.109375 54.6875 
L 18.109375 46.1875 
Q 21.34375 51.125 25.703125 53.5625 
Q 30.078125 56 35.796875 56 
Q 45.21875 56 50.046875 50.171875 
Q 54.890625 44.34375 54.890625 33.015625 
z
" id="DejaVuSans-110"/>
      <path d="M 4.890625 31.390625 
L 31.203125 31.390625 
L 31.203125 23.390625 
L 4.890625 23.390625 
z
" id="DejaVuSans-45"/>
      <path d="M 18.109375 8.203125 
L 18.109375 -20.796875 
L 9.078125 -20.796875 
L 9.078125 54.6875 
L 18.109375 54.6875 
L 18.109375 46.390625 
Q 20.953125 51.265625 25.265625 53.625 
Q 29.59375 56 35.59375 56 
Q 45.5625 56 51.78125 48.09375 
Q 58.015625 40.1875 58.015625 27.296875 
Q 58.015625 14.40625 51.78125 6.484375 
Q 45.5625 -1.421875 35.59375 -1.421875 
Q 29.59375 -1.421875 25.265625 0.953125 
Q 20.953125 3.328125 18.109375 8.203125 
z
M 48.6875 27.296875 
Q 48.6875 37.203125 44.609375 42.84375 
Q 40.53125 48.484375 33.40625 48.484375 
Q 26.265625 48.484375 22.1875 42.84375 
Q 18.109375 37.203125 18.109375 27.296875 
Q 18.109375 17.390625 22.1875 11.75 
Q 26.265625 6.109375 33.40625 6.109375 
Q 40.53125 6.109375 44.609375 11.75 
Q 48.6875 17.390625 48.6875 27.296875 
z
" id="DejaVuSans-112"/>
      <path d="M 18.3125 70.21875 
L 18.3125 54.6875 
L 36.8125 54.6875 
L 36.8125 47.703125 
L 18.3125 47.703125 
L 18.3125 18.015625 
Q 18.3125 11.328125 20.140625 9.421875 
Q 21.96875 7.515625 27.59375 7.515625 
L 36.8125 7.515625 
L 36.8125 0 
L 27.59375 0 
Q 17.1875 0 13.234375 3.875 
Q 9.28125 7.765625 9.28125 18.015625 
L 9.28125 47.703125 
L 2.6875 47.703125 
L 2.6875 54.6875 
L 9.28125 54.6875 
L 9.28125 70.21875 
z
" id="DejaVuSans-116"/>
     </defs>
     <g transform="translate(209.854375 204.4575)scale(0.18 -0.18)">
      <use xlink:href="#DejaVuSans-70"/>
      <use x="57.410156" xlink:href="#DejaVuSans-114"/>
      <use x="98.523438" xlink:href="#DejaVuSans-97"/>
      <use x="159.802734" xlink:href="#DejaVuSans-109"/>
      <use x="257.214844" xlink:href="#DejaVuSans-101"/>
      <use x="318.738281" xlink:href="#DejaVuSans-95"/>
      <use x="368.738281" xlink:href="#DejaVuSans-78"/>
      <use x="443.542969" xlink:href="#DejaVuSans-111"/>
      <use x="504.724609" xlink:href="#DejaVuSans-110"/>
      <use x="568.103516" xlink:href="#DejaVuSans-45"/>
      <use x="604.1875" xlink:href="#DejaVuSans-112"/>
      <use x="667.664062" xlink:href="#DejaVuSans-101"/>
      <use x="729.1875" xlink:href="#DejaVuSans-114"/>
      <use x="770.300781" xlink:href="#DejaVuSans-115"/>
      <use x="822.400391" xlink:href="#DejaVuSans-105"/>
      <use x="850.183594" xlink:href="#DejaVuSans-115"/>
      <use x="902.283203" xlink:href="#DejaVuSans-116"/>
      <use x="941.492188" xlink:href="#DejaVuSans-101"/>
      <use x="1003.015625" xlink:href="#DejaVuSans-110"/>
      <use x="1066.394531" xlink:href="#DejaVuSans-116"/>
     </g>
    </g>
    <g id="line2d_18">
     <path d="M 159.454375 225.07875 
L 195.454375 225.07875 
" style="fill:none;stroke:#2ca02c;stroke-linecap:square;stroke-width:1.5;"/>
    </g>
    <g id="line2d_19"/>
    <g id="text_10">
     <!-- Frame -->
     <g transform="translate(209.854375 231.37875)scale(0.18 -0.18)">
      <use xlink:href="#DejaVuSans-70"/>
      <use x="57.410156" xlink:href="#DejaVuSans-114"/>
      <use x="98.523438" xlink:href="#DejaVuSans-97"/>
      <use x="159.802734" xlink:href="#DejaVuSans-109"/>
      <use x="257.214844" xlink:href="#DejaVuSans-101"/>
     </g>
    </g>
   </g>
  </g>
 </g>
 <defs>
  <clipPath id="pe7e4ea475a">
   <rect height="217.44" width="334.8" x="90.26125" y="33.882187"/>
  </clipPath>
 </defs>
</svg>
